<?xml version="1.0" encoding="utf-8"?>
<svg version="1.1" xmlns="http://www.w3.org/2000/svg" xmlns:xlink="http://www.w3.org/1999/xlink" x="0px" y="0px" viewBox="0 0 169.8 162.2" xml:space="preserve">
<style type="text/css">
	.st0{fill:#FFFFFF;}
	.st1{fill:#EF3D5A;}
	.st2{fill:#71C7F5;}
	.st3{fill:#A4D165;}
	.st4{fill:none;}
	.st5{fill:#AF7AC5;}
	.st6{fill:#FF8343;}
	.st7{fill:#F0588D;}
	.st8{fill:#48D2B0;}
	.st9{fill:#FFB312;}
	.st10{fill:#FAA018;}
	.st11{fill:#FFC241;}
	.st12{fill:#A67C52;}
</style>
<g transform="translate(179.3 -653.1)">
<g>
	
		<ellipse transform="matrix(0.9239 -0.3827 0.3827 0.9239 -289.1275 19.878)" class="st1" cx="-94.6" cy="736.7" rx="18.8" ry="18.8"/>
	<path class="st1" d="M-104.7,762.2c-8-3.2-14.2-10.1-16.5-18.5c-10.6-0.6-21.3,4-28,13.2c-10.5,14.4-7.3,34.6,7.1,45
		c13.1,9.5,30.9,7.8,41.9-3.4C-107.5,787.5-108.8,773.9-104.7,762.2z"/>
	<path class="st1" d="M-73.5,754.1c-5.5,6.7-14,10.4-22.7,9.9c-3.9,9.9-2.8,21.5,3.9,30.7c10.5,14.4,30.6,17.6,45,7.1
		c13.1-9.5,16.9-27,9.7-40.9C-50.3,764.7-63.6,761.7-73.5,754.1z"/>
	<path class="st1" d="M-71.5,722c4.6,7.3,5.6,16.5,2.4,24.7c8.2,6.7,19.6,9.3,30.4,5.8c16.9-5.5,26.2-23.7,20.7-40.6
		c-5-15.4-20.4-24.4-35.9-21.9C-54.3,703.2-61.2,714.9-71.5,722z"/>
	<path class="st1" d="M-101.5,710.2c8.4-2.2,17.4-0.2,24.2,5.3c8.9-5.7,14.9-15.8,14.9-27.2c0-17.8-14.4-32.2-32.2-32.2
		c-16.1,0-29.5,11.9-31.9,27.4C-114,688-105,698.2-101.5,710.2z"/>
	<path class="st1" d="M-122,735c0.5-8.6,5.2-16.7,12.5-21.4c-2.7-10.3-10.4-19-21.2-22.5c-16.9-5.5-35.1,3.8-40.6,20.7
		c-5,15.4,2.2,31.7,16.2,38.8C-146.9,740.1-134.4,734.7-122,735z"/>
</g>
</g>
</svg>
