<?xml version="1.0" encoding="utf-8"?>
<svg version="1.1" xmlns="http://www.w3.org/2000/svg" xmlns:xlink="http://www.w3.org/1999/xlink" x="0px" y="0px" viewBox="0 0 177 177" xml:space="preserve">
<style type="text/css">
	.st0{fill:#FFFFFF;}
	.st1{fill:#EF3D5A;}
	.st2{fill:#71C7F5;}
	.st3{fill:#A4D165;}
	.st4{fill:none;}
	.st5{fill:#AF7AC5;}
	.st6{fill:#FF8343;}
	.st7{fill:#F0588D;}
	.st8{fill:#48D2B0;}
	.st9{fill:#FFB312;}
	.st10{fill:#FAA018;}
	.st11{fill:#FFC241;}
	.st12{fill:#A67C52;}
</style>
<g transform="translate(-722.9 -426.4)">
<g>
	<path class="st10" d="M846.4,515.5c37.9-1.7,50.3-12.4,39.7-16c2.4-2.6,2-4.8-1.3-5.9c8.2-8.4-7.9-12.2-42.8,4.4
		c31.9-20.5,37.3-35.9,26.3-33.7c0.8-3.4-0.7-5.1-4-4.5c2.9-11.4-12.9-6.6-34.9,25.2c17.4-33.7,14.4-49.7,5.9-42.4
		c-1-3.4-3.1-4.1-5.7-1.9c-3.2-11.3-14.5,0.7-17.6,39.2c-1.7-37.9-12.4-50.3-16-39.7c-2.6-2.4-4.8-2-5.9,1.3
		c-8.4-8.2-12.2,7.9,4.4,42.8c-20.5-31.9-35.9-37.3-33.7-26.3c-3.4-0.8-5.1,0.7-4.5,4c-11.4-2.9-6.6,12.9,25.2,34.9
		c-33.7-17.4-49.7-14.4-42.4-5.9c-3.4,1-4.1,3.1-1.9,5.7c-11.3,3.2,0.7,14.5,39.2,17.6c-37.9,1.7-50.3,12.4-39.7,16
		c-2.4,2.6-2,4.8,1.3,5.9c-8.2,8.4,7.9,12.2,42.8-4.4c-31.9,20.5-37.3,35.9-26.3,33.7c-0.8,3.4,0.7,5.1,4,4.5
		c-2.9,11.4,12.9,6.6,34.9-25.2c-17.4,33.7-14.4,49.7-5.9,42.4c1,3.4,3.1,4.1,5.7,1.9c3.2,11.3,14.5-0.7,17.6-39.2
		c1.7,37.9,12.4,50.3,16,39.7c2.6,2.4,4.8,2,5.9-1.3c8.4,8.2,12.2-7.9-4.4-42.8c20.5,31.9,35.9,37.3,33.7,26.3
		c3.4,0.8,5.1-0.7,4.5-4c11.4,2.9,6.6-12.9-25.2-34.9c33.7,17.4,49.7,14.4,42.4,5.9c3.4-1,4.1-3.1,1.9-5.7
		C896.9,529.9,884.9,518.5,846.4,515.5z"/>
	<path class="st11" d="M843.2,510.4c34.1-7,43.8-18.5,33.6-20.2c1.9-2.7,1.1-4.6-2-5.2c6.2-8.8-8.9-9.9-38.1,10.1
		c26-23.1,28.7-37.9,19-34.3c0.3-3.2-1.3-4.5-4.3-3.5c1-10.7-12.7-4.1-28,27.8c11-33,5.9-47.1-0.7-39.2c-1.4-2.9-3.4-3.3-5.5-0.9
		c-4.5-9.8-13,2.8-10.3,38.1c-7-34.1-18.5-43.8-20.2-33.6c-2.7-1.9-4.6-1.1-5.2,2c-8.8-6.2-9.9,8.9,10.1,38.1
		c-23.1-26-37.9-28.7-34.3-19c-3.2-0.3-4.5,1.3-3.5,4.3c-10.7-1-4.1,12.7,27.8,28c-33-11-47.1-5.9-39.2,0.7
		c-2.9,1.4-3.3,3.4-0.9,5.5c-9.8,4.5,2.8,13,38.1,10.3c-34.1,7-43.8,18.5-33.6,20.2c-1.9,2.7-1.1,4.6,2,5.2
		c-6.2,8.8,8.9,9.9,38.1-10.1c-26,23.1-28.7,37.9-19,34.3c-0.3,3.2,1.3,4.5,4.3,3.5c-1,10.7,12.7,4.1,28-27.8
		c-11,33-5.9,47.1,0.7,39.2c1.4,2.9,3.4,3.3,5.5,0.9c4.5,9.8,13-2.8,10.3-38.1c7,34.1,18.5,43.8,20.2,33.6c2.7,1.9,4.6,1.1,5.2-2
		c8.8,6.2,9.9-8.9-10.1-38.1c23.1,26,37.9,28.7,34.3,19c3.2,0.3,4.5-1.3,3.5-4.3c10.7,1,4.1-12.7-27.8-28c33,11,47.1,5.9,39.2-0.7
		c2.9-1.4,3.3-3.4,0.9-5.5C891,516.2,878.5,507.6,843.2,510.4z"/>
	
		<ellipse transform="matrix(0.3864 -0.9223 0.9223 0.3864 22.9914 1064.3496)" class="st12" cx="811.5" cy="514.9" rx="39.1" ry="39.1"/>
</g>
</g>
</svg>
